HIERARCHY
ROOT Hips
{
	OFFSET	0.000000	0.000000	0.000000
	CHANNELS 6 Xposition Yposition Zposition Zrotation Xrotation Yrotation
	JOINT LeftHip
	{
		OFFSET	4.740440	-3.195970	-0.322709
		CHANNELS 3 Zrotation Xrotation Yrotation
		JOINT LeftKnee
		{
			OFFSET	-1.605680	-15.592300	1.005510
			CHANNELS 3 Zrotation Xrotation Yrotation
			JOINT LeftAnkle
			{
				OFFSET	-0.632401	-16.421000	-1.413730
				CHANNELS 3 Zrotation Xrotation Yrotation
				End Site
				{
					OFFSET	0.008423	-2.933000	-1.684880
				}
			}
		}
	}
	JOINT RightHip
	{
		OFFSET	-4.740440	-3.195970	-0.322709
		CHANNELS 3 Zrotation Xrotation Yrotation
		JOINT RightKnee
		{
			OFFSET	1.605680	-15.592300	1.005510
			CHANNELS 3 Zrotation Xrotation Yrotation
			JOINT RightAnkle
			{
				OFFSET	0.632401	-16.421000	-1.413730
				CHANNELS 3 Zrotation Xrotation Yrotation
				End Site
				{
					OFFSET	-0.008423	-2.933000	-1.684880
				}
			}
		}
	}
	JOINT Chest
	{
		OFFSET	0.000000	3.468200	0.078401
		CHANNELS 3 Zrotation Xrotation Yrotation
		JOINT LeftCollar
		{
			OFFSET	3.857650	15.070700	-0.011583
			CHANNELS 3 Zrotation Xrotation Yrotation
			JOINT LeftShoulder
			{
				OFFSET	3.979720	-1.940530	-0.165223
				CHANNELS 3 Zrotation Xrotation Yrotation
				JOINT LeftElbow
				{
					OFFSET	0.615844	-10.986600	-0.673886
					CHANNELS 3 Zrotation Xrotation Yrotation
					JOINT LeftWrist
					{
						OFFSET	0.826843	-10.854500	1.034220
						CHANNELS 3 Zrotation Xrotation Yrotation
						End Site
						{
							OFFSET	-1.679080	-8.456540	0.936217
						}
					}
				}
			}
		}
		JOINT RightCollar
		{
			OFFSET	-3.857650	15.070700	-0.011583
			CHANNELS 3 Zrotation Xrotation Yrotation
			JOINT RightShoulder
			{
				OFFSET	-3.979720	-1.940530	-0.165223
				CHANNELS 3 Zrotation Xrotation Yrotation
				JOINT RightElbow
				{
					OFFSET	-0.615845	-10.986600	-0.673886
					CHANNELS 3 Zrotation Xrotation Yrotation
					JOINT RightWrist
					{
						OFFSET	-0.826843	-10.854500	1.034220
						CHANNELS 3 Zrotation Xrotation Yrotation
						End Site
						{
							OFFSET	1.679080	-8.456540	0.936217
						}
					}
				}
			}
		}
		JOINT Neck
		{
			OFFSET	0.000000	15.101400	0.055730
			CHANNELS 3 Zrotation Xrotation Yrotation
			JOINT Head
			{
				OFFSET	0.000000	4.185120	1.488260
				CHANNELS 3 Zrotation Xrotation Yrotation
				End Site
				{
					OFFSET	0.000000	7.773420	-0.106016
				}
			}
		}
	}
}
MOTION
Frames:     7
Frame Time: 0.016667
0.030173	38.158459	0.074069	-0.154345	0.080239	-0.314382	0.124953	0.228816	0.223054	-0.044744	-0.319901	0.080370	0.073388	0.011478	0.010880	0.095885	0.179507	0.041602	0.209255	-0.016452	0.289009	-0.151765	-0.241724	-0.015789	-0.010784	0.089425	-0.388880	-0.215020	-0.353843	-0.546133	-0.135785	1.333817	0.386919	-0.833745	-0.431866	-2.798742	0.790514	0.100546	-1.271034	-0.093313	0.129395	-0.932029	-0.127815	-1.285133	2.078490	-0.062237	0.970541	-0.852634	-0.872747	-1.081664	2.326730	-0.305812	1.885661	-1.386322	-2.791317	2.132970	3.194280	
0.030173	38.158459	0.074069	-0.154345	0.080239	-0.314382	0.124953	0.228816	0.223054	-0.044744	-0.319901	0.080370	0.073388	0.011478	0.010880	0.091678	0.174926	0.057970	0.225999	0.002161	0.273865	-0.164375	-0.255756	-0.017056	-0.007808	0.091537	-0.382637	-0.218022	-0.355950	-0.552385	-0.129499	1.312602	0.389324	-0.847761	-0.441572	-2.817403	0.802589	0.084821	-1.256670	-0.096262	0.127275	-0.938276	-0.129975	-1.299679	2.093842	-0.049673	0.972198	-0.850781	-0.873190	-1.119358	2.314142	-0.308568	1.883564	-1.392580	-2.791317	2.132970	3.194280	
0.030173	38.158459	0.074069	-0.154345	0.080239	-0.314382	0.124953	0.228816	0.223054	-0.044744	-0.319901	0.080370	0.073388	0.011478	0.010880	0.090163	0.173279	0.063859	0.232219	0.009066	0.268448	-0.169104	-0.261018	-0.017545	-0.005557	0.093129	-0.377927	-0.220291	-0.357540	-0.557107	-0.127270	1.305099	0.390171	-0.861570	-0.446713	-2.817723	0.815486	0.082458	-1.257929	-0.098491	0.125675	-0.942995	-0.132156	-1.314465	2.109569	-0.036072	0.972351	-0.849672	-0.883906	-1.106962	2.297557	-0.310653	1.881982	-1.397307	-2.791317	2.132970	3.194280	
0.030173	38.158459	0.074069	-0.154345	0.080239	-0.314382	0.124953	0.228816	0.223054	-0.044744	-0.319901	0.080370	0.073388	0.011478	0.010880	0.085858	0.168575	0.080643	0.250266	0.029128	0.253016	-0.182910	-0.276384	-0.018954	-0.005192	0.093390	-0.377167	-0.220660	-0.357800	-0.557866	-0.120203	1.281229	0.392867	-0.880718	-0.465254	-2.818836	0.832096	0.077588	-1.298453	-0.095369	0.121561	-0.941838	-0.137988	-1.325826	2.123458	-0.027904	0.945835	-0.852185	-0.881301	-1.110177	2.288792	-0.310992	1.881722	-1.398066	-2.791317	2.132970	3.194280	
0.030173	38.158459	0.074069	-0.154345	0.080239	-0.314382	0.124953	0.228816	0.223054	-0.044744	-0.319901	0.080370	0.073388	0.011478	0.010880	0.084504	0.167087	0.085928	0.256047	0.035560	0.248170	-0.187358	-0.281331	-0.019415	-0.005192	0.093390	-0.377167	-0.220660	-0.357800	-0.557866	-0.117685	1.272732	0.393818	-0.886699	-0.470434	-2.819281	0.835879	0.089543	-1.340529	-0.091288	0.117032	-0.939600	-0.143350	-1.329136	2.129158	-0.024839	0.940917	-0.860464	-0.880204	-1.112061	2.290595	-0.310992	1.881722	-1.398066	-2.791317	2.132970	3.194280	
0.030173	38.158459	0.074069	-0.154345	0.080239	-0.314382	0.124953	0.228816	0.223054	-0.044744	-0.319901	0.080370	0.073388	0.011478	0.010880	0.080529	0.162718	0.101469	0.273132	0.054547	0.233894	-0.200517	-0.295968	-0.020745	-0.000004	0.097060	-0.366291	-0.225891	-0.361462	-0.568765	-0.110066	1.246982	0.396732	-0.903919	-0.482741	-2.820773	0.852985	0.056476	-1.373417	-0.083420	0.098909	-0.943330	-0.160280	-1.338505	2.145553	-0.016048	0.930312	-0.884872	-0.877163	-1.117591	2.295421	-0.315797	1.878078	-1.408977	-2.791317	2.132970	3.194280	
0.030173	38.158459	0.074069	-0.154345	0.080239	-0.314382	0.124953	0.228816	0.223054	-0.044744	-0.319901	0.080370	0.073388	0.011478	0.010880	0.079199	0.161263	0.106652	0.278655	0.060669	0.229117	-0.204722	-0.300645	-0.021181	-0.000004	0.097060	-0.366291	-0.225891	-0.361462	-0.568765	-0.107476	1.238237	0.397734	-0.909966	-0.487656	-2.821263	0.858682	0.044608	-1.360757	-0.078885	0.093877	-0.940831	-0.166097	-1.341284	2.150976	-0.013135	0.926504	-0.893086	-0.876124	-1.119525	2.297039	-0.315797	1.878078	-1.408977	-2.791317	2.132970	3.194280	
